<svg xmlns="http://www.w3.org/2000/svg" version="1.1" xmlns:xlink="http://www.w3.org/1999/xlink" xmlns:svgjs="http://svgjs.com/svgjs" width="1440" height="800" preserveAspectRatio="none" viewBox="0 0 1440 800">
  <g mask="url(&quot;#SvgjsMask1203&quot;)" fill="none">
      <path d="M59.72 188.23L99.56 211.23L99.56 257.23L59.72 280.23L19.88 257.23L19.88 211.23zM59.72 602.23L99.56 625.23L99.56 671.23L59.72 694.23L19.88 671.23L19.88 625.23zM19.88 671.23L59.72 694.23L59.72 740.23L19.88 763.23L-19.96 740.23L-19.96 694.23zM139.39 464.23L179.23 487.23L179.23 533.23L139.39 556.23L99.56 533.23L99.56 487.23zM99.56 809.23L139.39 832.23L139.39 878.23L99.56 901.23L59.72 878.23L59.72 832.23zM219.07 740.23L258.91 763.23L258.91 809.23L219.07 832.23L179.23 809.23L179.23 763.23zM179.23 809.23L219.07 832.23L219.07 878.23L179.23 901.23L139.39 878.23L139.39 832.23zM298.75 50.23L338.59 73.23L338.59 119.23L298.75 142.23L258.91 119.23L258.91 73.23zM298.75 464.23L338.59 487.23L338.59 533.23L298.75 556.23L258.91 533.23L258.91 487.23zM378.42 740.23L418.26 763.23L418.26 809.23L378.42 832.23L338.59 809.23L338.59 763.23zM458.1 464.23L497.94 487.23L497.94 533.23L458.1 556.23L418.26 533.23L418.26 487.23zM458.1 740.23L497.94 763.23L497.94 809.23L458.1 832.23L418.26 809.23L418.26 763.23zM418.26 809.23L458.1 832.23L458.1 878.23L418.26 901.23L378.42 878.23L378.42 832.23zM497.94 257.23L537.78 280.23L537.78 326.23L497.94 349.23L458.1 326.23L458.1 280.23zM617.45 188.23L657.29 211.23L657.29 257.23L617.45 280.23L577.62 257.23L577.62 211.23zM577.62 533.23L617.45 556.23L617.45 602.23L577.62 625.23L537.78 602.23L537.78 556.23zM697.13 740.23L736.97 763.23L736.97 809.23L697.13 832.23L657.29 809.23L657.29 763.23zM776.81 50.23L816.65 73.23L816.65 119.23L776.81 142.23L736.97 119.23L736.97 73.23zM856.48 464.23L896.32 487.23L896.32 533.23L856.48 556.23L816.65 533.23L816.65 487.23zM816.65 533.23L856.48 556.23L856.48 602.23L816.65 625.23L776.81 602.23L776.81 556.23zM936.16 50.23L976 73.23L976 119.23L936.16 142.23L896.32 119.23L896.32 73.23zM1015.84 50.23L1055.68 73.23L1055.68 119.23L1015.84 142.23L976 119.23L976 73.23zM976 395.23L1015.84 418.23L1015.84 464.23L976 487.23L936.16 464.23L936.16 418.23zM1015.84 464.23L1055.68 487.23L1055.68 533.23L1015.84 556.23L976 533.23L976 487.23zM1055.68 533.23L1095.51 556.23L1095.51 602.23L1055.68 625.23L1015.84 602.23L1015.84 556.23zM1055.68 671.23L1095.51 694.23L1095.51 740.23L1055.68 763.23L1015.84 740.23L1015.84 694.23zM1135.35 671.23L1175.19 694.23L1175.19 740.23L1135.35 763.23L1095.51 740.23L1095.51 694.23zM1254.87 50.23L1294.71 73.23L1294.71 119.23L1254.87 142.23L1215.03 119.23L1215.03 73.23zM1215.03 533.23L1254.87 556.23L1254.87 602.23L1215.03 625.23L1175.19 602.23L1175.19 556.23zM1254.87 740.23L1294.71 763.23L1294.71 809.23L1254.87 832.23L1215.03 809.23L1215.03 763.23zM1334.54 188.23L1374.38 211.23L1374.38 257.23L1334.54 280.23L1294.71 257.23L1294.71 211.23zM1294.71 533.23L1334.54 556.23L1334.54 602.23L1294.71 625.23L1254.87 602.23L1254.87 556.23zM1374.38 257.23L1414.22 280.23L1414.22 326.23L1374.38 349.23L1334.54 326.23L1334.54 280.23zM1454.06 119.23L1493.9 142.23L1493.9 188.23L1454.06 211.23L1414.22 188.23L1414.22 142.23zM1493.9 602.23L1533.74 625.23L1533.74 671.23L1493.9 694.23L1454.06 671.23L1454.06 625.23z" stroke="rgba(237, 30, 121, 1)" stroke-width="2"></path>
  </g>
  <defs>
      <mask id="SvgjsMask1203">
          <rect width="1440" height="800" fill="#ffffff"></rect>
      </mask>
  </defs>
</svg>