<?xml version="1.0" encoding="UTF-8" standalone="no"?><!DOCTYPE svg PUBLIC "-//W3C//DTD SVG 1.1//EN" "http://www.w3.org/Graphics/SVG/1.1/DTD/svg11.dtd"><svg width="3387px" height="927px" version="1.1" xmlns="http://www.w3.org/2000/svg" xmlns:xlink="http://www.w3.org/1999/xlink" xml:space="preserve" xmlns:serif="http://www.serif.com/" style="fill-rule:evenodd;clip-rule:evenodd;stroke-linejoin:round;stroke-miterlimit:2;"><g><path d="M1428.21,386.543C1428.21,425.512 1403.32,443.821 1369.52,443.821L1171.39,443.821C1135.23,443.821 1113.63,423.633 1113.63,386.071L1113.63,188.408C1113.63,151.318 1133.82,130.655 1171.39,130.655L1369.99,130.655C1408.02,130.655 1428.21,151.787 1428.21,188.877L1428.21,212.352L1368.58,223.152L1368.58,183.243L1181.71,183.243C1175.61,183.243 1172.79,186.062 1172.79,191.696L1172.79,383.255C1172.79,388.421 1175.61,391.237 1180.78,391.237L1360.6,391.237C1365.76,391.237 1368.58,388.421 1368.58,382.787L1368.58,318.462L1273.27,318.462L1273.27,270.102L1428.21,270.102L1428.21,386.543Z" style="fill:#fff;fill-rule:nonzero;"/><path d="M1678.9,189.815L1612.7,326.915L1744.16,326.915L1678.9,189.815ZM1798.15,443.821L1765.29,377.152L1591.57,377.152L1558.23,443.821L1494.85,443.821L1653.55,130.655L1708.95,130.655L1863.89,443.821L1798.15,443.821Z" style="fill:#fff;fill-rule:nonzero;"/><path d="M2195.34,443.823L1989.22,214.701L1989.22,443.823L1933.82,443.823L1933.82,130.657L1987.34,130.657L2192.99,360.248L2192.99,130.657L2248.39,130.657L2248.39,443.823L2195.34,443.823Z" style="fill:#fff;fill-rule:nonzero;"/><path d="M2667.17,386.071C2667.17,423.633 2644.63,443.821 2608.95,443.821L2421.14,443.821C2384.99,443.821 2362.92,422.224 2362.92,386.071L2362.92,189.346C2362.92,150.374 2382.17,130.655 2421.14,130.655L2608.95,130.655C2646.51,130.655 2667.17,151.318 2667.17,189.346L2667.17,237.237L2608.01,247.565L2608.01,183.243L2431,183.243C2424.89,183.243 2422.08,186.53 2422.08,192.633L2422.08,382.787C2422.08,388.89 2423.49,391.237 2430.53,391.237L2608.01,391.237L2608.01,323.627L2667.17,333.955L2667.17,386.071Z" style="fill:#fff;fill-rule:nonzero;"/><path d="M2774.65,443.823L2774.65,130.657L2833.81,130.657L2833.81,391.238L3036.17,391.238L3036.17,443.823L2774.65,443.823Z" style="fill:#fff;fill-rule:nonzero;"/><path d="M3112.67,443.823L3112.67,130.657L3383.58,130.657L3383.58,183.241L3171.83,183.241L3171.83,257.426L3310.8,257.426L3310.8,309.073L3171.83,309.073L3171.83,391.238L3386.4,391.238L3386.4,443.823L3112.67,443.823Z" style="fill:#fff;fill-rule:nonzero;"/><path d="M1313.39,757.359C1313.39,781.393 1305.28,796.062 1275,796.062L1151.09,796.062C1125.18,796.062 1113.63,782.331 1113.63,759.543L1113.63,743.628L1153.27,736.446L1153.27,761.103L1268.76,761.103C1272.19,761.103 1274.07,759.231 1274.07,755.487L1274.07,714.287C1274.07,710.54 1272.19,708.668 1268.14,708.668L1155.46,708.668C1127.99,708.668 1117.69,694.934 1117.69,672.149L1117.69,625.331C1117.69,596.615 1130.49,587.874 1155.77,587.874L1272.82,587.874C1304.34,587.874 1312.15,601.921 1312.15,625.643L1312.15,639.687L1272.82,646.865L1272.82,622.834L1162.95,622.834C1159.2,622.834 1157.02,624.081 1157.02,628.762L1157.02,668.09C1157.02,671.837 1157.95,673.396 1162.64,673.396L1275.94,673.396C1302.16,673.396 1313.39,686.506 1313.39,710.228L1313.39,757.359Z" style="fill:#fff;fill-rule:nonzero;"/><path d="M1516.57,622.833L1516.57,796.062L1477.24,796.062L1477.24,622.833L1391.41,622.833L1391.41,587.874L1602.4,587.874L1602.4,622.833L1516.57,622.833Z" style="fill:#fff;fill-rule:nonzero;"/><path d="M1887.36,757.359C1887.36,781.081 1873.93,796.062 1848.97,796.062L1723.49,796.062C1700.08,796.062 1684.79,783.265 1684.79,757.984L1684.79,587.874L1724.11,587.874L1724.11,755.487C1724.11,760.168 1725.99,761.103 1730.04,761.103L1842.1,761.103C1846.78,761.103 1847.72,760.168 1847.72,755.487L1847.72,587.874L1887.36,587.874L1887.36,757.359Z" style="fill:#fff;fill-rule:nonzero;"/><path d="M2034.04,761.104L2157.33,761.104C2165.76,761.104 2166.7,758.607 2166.7,751.119L2166.7,634.382C2166.7,625.954 2165.13,622.835 2156.7,622.835L2034.04,622.835L2034.04,761.104ZM2206.33,754.551C2206.33,782.019 2190.1,796.063 2163.88,796.063L1994.71,796.063L1994.71,587.873L2165.13,587.873C2192.6,587.873 2206.33,604.416 2206.33,629.076L2206.33,754.551Z" style="fill:#fff;fill-rule:nonzero;"/><rect x="2313.68" y="587.872" width="39.328" height="208.191" style="fill:#fff;"/><path d="M2505.95,622.833C2501.89,622.833 2499.7,625.018 2499.7,629.074L2499.7,755.487C2499.7,759.543 2500.64,761.102 2505.32,761.102L2626.74,761.102C2631.42,761.102 2632.36,759.543 2632.36,755.487L2632.36,629.074C2632.36,625.018 2630.48,622.833 2626.43,622.833L2505.95,622.833ZM2672,746.746C2672,776.399 2661.38,796.062 2633.61,796.062L2498.46,796.062C2471.92,796.062 2460.37,781.705 2460.37,746.746L2460.37,636.877C2460.37,606.915 2470.05,587.874 2498.46,587.874L2633.3,587.874C2664.51,587.874 2672,607.227 2672,637.502L2672,746.746Z" style="fill:#fff;fill-rule:nonzero;"/><path d="M-0,0L-0,925.528L925.551,925.555L925.551,257.212L256.712,257.256L256.712,411.012L771.772,411.012L771.772,771.776L153.778,771.776L153.778,668.317L668.834,668.317L668.835,514.543L603.716,514.539L603.716,514.467L153.778,514.467L153.778,153.779L925.524,153.779L925.524,0L-0,0Z" style="fill:url(#_Linear1);fill-rule:nonzero;"/></g><defs><linearGradient id="_Linear1" x1="0" y1="0" x2="1" y2="0" gradientUnits="userSpaceOnUse" gradientTransform="matrix(1308.65,1592.84,-1592.84,1308.65,-107.82,-231.734)"><stop offset="0" style="stop-color:#662d91;stop-opacity:1"/><stop offset="1" style="stop-color:#ed1e79;stop-opacity:1"/></linearGradient></defs></svg>