<?xml version="1.0" encoding="UTF-8" standalone="no"?><!DOCTYPE svg PUBLIC "-//W3C//DTD SVG 1.1//EN" "http://www.w3.org/Graphics/SVG/1.1/DTD/svg11.dtd"><svg width="17563px" height="4807px" version="1.1" xmlns="http://www.w3.org/2000/svg" xmlns:xlink="http://www.w3.org/1999/xlink" xml:space="preserve" xmlns:serif="http://www.serif.com/" style="fill-rule:evenodd;clip-rule:evenodd;stroke-linejoin:round;stroke-miterlimit:2;"><g><path d="M0,0L0,4806.09L4806.21,4806.23L4806.21,1335.65L1333.06,1335.88L1333.06,2134.31L4007.66,2134.31L4007.66,4007.68L798.539,4007.68L798.539,3470.44L3473.12,3470.44L3473.13,2671.92L3134.98,2671.9L3134.98,2671.53L798.539,2671.53L798.539,798.544L4806.07,798.544L4806.07,0L0,0Z" style="fill:url(#_Linear1);fill-rule:nonzero;"/><path d="M7407.11,1971.38C7407.11,2173.48 7278.03,2268.43 7102.73,2268.43L6075.14,2268.43C5887.64,2268.43 5775.63,2163.74 5775.63,1968.92L5775.63,943.783C5775.63,751.422 5880.33,644.267 6075.14,644.267L7105.17,644.267C7302.41,644.267 7407.11,753.85 7407.11,946.211L7407.11,1067.97L7097.85,1123.99L7097.85,917L6128.71,917C6097.04,917 6082.43,931.628 6082.43,960.844L6082.43,1954.32C6082.43,1981.12 6097.04,1995.73 6123.84,1995.73L7056.46,1995.73C7083.22,1995.73 7097.85,1981.12 7097.85,1951.88L7097.85,1618.29L6603.54,1618.29L6603.54,1367.49L7407.11,1367.49L7407.11,1971.38Z" style="fill:#1a1a1a;fill-rule:nonzero;"/><path d="M8707.22,984.422L8363.89,1695.47L9045.69,1695.47L8707.22,984.422ZM9325.72,2301.78L9155.28,1956L8254.31,1956L8081.41,2301.78L7752.71,2301.78L8575.74,677.617L8863.06,677.617L9666.64,2301.78L9325.72,2301.78Z" style="fill:#1a1a1a;fill-rule:nonzero;"/><path d="M11385.6,2301.78L10316.7,1113.49L10316.7,2301.78L10029.3,2301.78L10029.3,677.611L10306.9,677.611L11373.4,1868.33L11373.4,677.611L11660.8,677.611L11660.8,2301.78L11385.6,2301.78Z" style="fill:#1a1a1a;fill-rule:nonzero;"/><path d="M13832.7,2002.26C13832.7,2197.08 13715.8,2301.78 13530.7,2301.78L12556.7,2301.78C12369.2,2301.78 12254.8,2189.76 12254.8,2002.26L12254.8,981.983C12254.8,779.878 12354.6,677.611 12556.7,677.611L13530.7,677.611C13725.5,677.611 13832.7,784.761 13832.7,981.983L13832.7,1230.36L13525.8,1283.93L13525.8,950.339L12607.8,950.339C12576.2,950.339 12561.6,967.378 12561.6,999.044L12561.6,1985.22C12561.6,2016.87 12568.9,2029.07 12605.4,2029.07L13525.8,2029.07L13525.8,1678.42L13832.7,1731.98L13832.7,2002.26Z" style="fill:#1a1a1a;fill-rule:nonzero;"/><path d="M14390.1,2301.78L14390.1,677.611L14696.9,677.611L14696.9,2029.07L15746.4,2029.07L15746.4,2301.78L14390.1,2301.78Z" style="fill:#1a1a1a;fill-rule:nonzero;"/><path d="M16143.2,2301.78L16143.2,677.611L17548.2,677.611L17548.2,950.344L16450,950.344L16450,1335.07L17170.8,1335.07L17170.8,1602.93L16450,1602.93L16450,2029.07L17562.8,2029.07L17562.8,2301.78L16143.2,2301.78Z" style="fill:#1a1a1a;fill-rule:nonzero;"/><path d="M6811.61,3927.87C6811.61,4052.52 6769.51,4128.61 6612.49,4128.61L5969.85,4128.61C5835.48,4128.61 5775.59,4057.38 5775.59,3939.18L5775.59,3856.64L5981.17,3819.42L5981.17,3947.29L6580.13,3947.29C6597.93,3947.29 6607.65,3937.57 6607.65,3918.17L6607.65,3704.49C6607.65,3685.04 6597.93,3675.34 6576.89,3675.34L5992.51,3675.34C5850.04,3675.34 5796.61,3604.12 5796.61,3485.94L5796.61,3243.12C5796.61,3094.18 5862.98,3048.86 5994.11,3048.86L6601.17,3048.86C6764.67,3048.86 6805.13,3121.73 6805.13,3244.74L6805.13,3317.59L6601.17,3354.81L6601.17,3230.18L6031.36,3230.18C6011.93,3230.18 6000.59,3236.66 6000.59,3260.92L6000.59,3464.91C6000.59,3484.32 6005.46,3492.43 6029.73,3492.43L6617.35,3492.43C6753.32,3492.43 6811.61,3560.41 6811.61,3683.42L6811.61,3927.87Z" style="fill:#1a1a1a;fill-rule:nonzero;"/><path d="M7865.33,3230.18L7865.33,4128.61L7661.38,4128.61L7661.38,3230.18L7216.22,3230.18L7216.22,3048.86L8310.49,3048.86L8310.49,3230.18L7865.33,3230.18Z" style="fill:#1a1a1a;fill-rule:nonzero;"/><path d="M9788.33,3927.87C9788.33,4050.9 9718.72,4128.61 9589.23,4128.61L8938.47,4128.61C8817.08,4128.61 8737.73,4062.24 8737.73,3931.11L8737.73,3048.86L8941.71,3048.86L8941.71,3918.17C8941.71,3942.43 8951.41,3947.29 8972.47,3947.29L9553.61,3947.29C9577.89,3947.29 9582.75,3942.43 9582.75,3918.17L9582.75,3048.86L9788.33,3048.86L9788.33,3927.87Z" style="fill:#1a1a1a;fill-rule:nonzero;"/><path d="M10549.1,3947.29L11188.5,3947.29C11232.2,3947.29 11237.1,3934.35 11237.1,3895.51L11237.1,3290.07C11237.1,3246.36 11229,3230.18 11185.2,3230.18L10549.1,3230.18L10549.1,3947.29ZM11442.6,3913.31C11442.6,4055.76 11358.5,4128.61 11222.5,4128.61L10345.1,4128.61L10345.1,3048.86L11229,3048.86C11371.4,3048.86 11442.6,3134.67 11442.6,3262.54L11442.6,3913.31Z" style="fill:#1a1a1a;fill-rule:nonzero;"/><rect x="11999.4" y="3048.87" width="203.956" height="1079.72" style="fill:#1a1a1a;"/><path d="M12996.6,3230.18C12975.5,3230.18 12964.2,3241.5 12964.2,3262.54L12964.2,3918.17C12964.2,3939.18 12969,3947.28 12993.3,3947.28L13623,3947.28C13647.3,3947.28 13652.2,3939.18 13652.2,3918.17L13652.2,3262.54C13652.2,3241.5 13642.4,3230.18 13621.4,3230.18L12996.6,3230.18ZM13857.7,3872.82C13857.7,4026.61 13802.7,4128.61 13658.6,4128.61L12957.7,4128.61C12820.1,4128.61 12760.2,4054.14 12760.2,3872.82L12760.2,3303.03C12760.2,3147.61 12810.4,3048.86 12957.7,3048.86L13657,3048.86C13818.9,3048.86 13857.7,3149.23 13857.7,3306.27L13857.7,3872.82Z" style="fill:#1a1a1a;fill-rule:nonzero;"/></g><defs><linearGradient id="_Linear1" x1="0" y1="0" x2="1" y2="0" gradientUnits="userSpaceOnUse" gradientTransform="matrix(6795.56,8271.33,-8271.33,6795.56,-559.889,-1203.35)"><stop offset="0" style="stop-color:#662d91;stop-opacity:1"/><stop offset="1" style="stop-color:#ed1e79;stop-opacity:1"/></linearGradient></defs></svg>